# xmcd
#
# Track frame offsets: 
#        150
#        16123
#        34872
#        55271
#        75219
#        90022
#        109666
#        125863
#        141238
#        161337
#
# Disc length: 2418 seconds
#
# Revision: 0
# Processed by: cddbd v1.5.2PL0 Copyright (c) Steve Scherf et al.
# Submitted via: ExactAudioCopyFreeDBPlugin 1.0
#
DISCID=6d09700a
DTITLE=Basement Cabaret - Basement Cabaret
DYEAR=2014
DGENRE=Country
TTITLE0=Operator, Operator
TTITLE1=City Girls
TTITLE2=Hold On
TTITLE3=Words
TTITLE4=Lookin' For a Feeling
TTITLE5=Took It All From Me
TTITLE6=Wonder What She's Thinking Of
TTITLE7=Boardwalk Angel
TTITLE8=Blue Eyes
TTITLE9=Basement Cabaret
EXTD=
EXTT0=
EXTT1=
EXTT2=
EXTT3=
EXTT4=
EXTT5=
EXTT6=
EXTT7=
EXTT8=
EXTT9=
PLAYORDER=
